# Blender 5.1.0
# www.blender.org
mtllib grass.mtl
o grass
v -0.004314 0.033563 0.006592
v -0.010588 0.033563 0.001360
v -0.009685 -0.000978 0.001313
v -0.004174 -0.000978 0.005907
v -0.005022 0.054968 0.007454
v -0.011771 0.054968 0.001827
v -0.009574 0.084245 0.010878
v -0.016620 0.084245 0.005003
v -0.015998 0.115433 0.015388
v -0.023043 0.115433 0.009514
v -0.023129 0.144416 0.019733
v -0.029313 0.144416 0.014577
v -0.031221 0.160185 0.023915
v -0.035451 0.160185 0.020388
v -0.051231 0.176099 0.035238
v -0.051911 0.176099 0.034671
v -0.055358 0.175192 0.037636
v -0.008274 0.033272 0.004578
v -0.006915 -0.000978 0.003623
v -0.009820 0.054468 0.005663
v -0.015238 0.083495 0.009470
v -0.021543 0.113981 0.013897
v -0.027564 0.143448 0.018122
v -0.033764 0.158902 0.022475
v -0.051557 0.176099 0.034967
v -0.004314 0.033563 0.006592
v -0.010588 0.033563 0.001360
v -0.009685 -0.000978 0.001313
v -0.004174 -0.000978 0.005907
v -0.005022 0.054968 0.007454
v -0.011771 0.054968 0.001827
v -0.009574 0.084245 0.010878
v -0.016620 0.084245 0.005003
v -0.015998 0.115433 0.015388
v -0.023043 0.115433 0.009514
v -0.023129 0.144416 0.019733
v -0.029313 0.144416 0.014577
v -0.031221 0.160185 0.023915
v -0.035451 0.160185 0.020388
v -0.051231 0.176099 0.035238
v -0.051911 0.176099 0.034671
v -0.055358 0.175192 0.037636
v -0.008274 0.033272 0.004578
v -0.006915 -0.000978 0.003623
v -0.009820 0.054468 0.005663
v -0.015238 0.083495 0.009470
v -0.021543 0.113981 0.013897
v -0.027564 0.143448 0.018122
v -0.033764 0.158902 0.022475
v -0.051557 0.176099 0.034967
v -0.006906 0.002141 -0.005329
v 0.007190 0.002968 -0.002289
v -0.009882 0.036467 -0.003469
v 0.005284 0.037357 -0.000198
v -0.012060 0.079247 -0.006623
v 0.003771 0.080176 -0.003209
v -0.012242 0.137220 -0.021548
v 0.003589 0.138149 -0.018134
v -0.008310 0.170276 -0.044055
v 0.005584 0.171091 -0.041058
v -0.003302 0.180388 -0.059347
v 0.006203 0.180945 -0.057298
v 0.008498 0.174314 -0.092988
v 0.010025 0.174404 -0.092659
v 0.011576 0.165350 -0.101276
v 0.000405 0.002654 -0.005225
v -0.001824 0.037085 -0.004256
v -0.003256 0.076237 -0.008275
v -0.003453 0.132568 -0.022685
v -0.000932 0.165946 -0.043435
v 0.001582 0.177800 -0.058318
v 0.009227 0.174357 -0.092831
v -0.006906 0.002141 -0.005329
v 0.007190 0.002968 -0.002289
v -0.009882 0.036467 -0.003469
v 0.005284 0.037357 -0.000198
v -0.012060 0.079247 -0.006623
v 0.003771 0.080176 -0.003209
v -0.012242 0.137220 -0.021548
v 0.003589 0.138149 -0.018134
v -0.008310 0.170276 -0.044055
v 0.005584 0.171091 -0.041058
v -0.003302 0.180388 -0.059347
v 0.006203 0.180945 -0.057298
v 0.008498 0.174314 -0.092988
v 0.010025 0.174404 -0.092659
v 0.011576 0.165350 -0.101276
v 0.000405 0.002654 -0.005225
v -0.001824 0.037085 -0.004256
v -0.003256 0.076237 -0.008275
v -0.003453 0.132568 -0.022685
v -0.000932 0.165946 -0.043435
v 0.001582 0.177800 -0.058318
v 0.009227 0.174357 -0.092831
v 0.016623 0.049972 0.008089
v 0.005180 0.049972 0.004968
v 0.005877 0.001456 0.005158
v 0.015927 0.001456 0.007898
v 0.017057 0.082925 0.008207
v 0.004747 0.082925 0.004850
v 0.017782 0.116331 0.012755
v 0.004932 0.116331 0.009251
v 0.019280 0.160968 0.027495
v 0.006429 0.160968 0.023991
v 0.020513 0.185568 0.047150
v 0.009234 0.185568 0.044075
v 0.020072 0.192502 0.059854
v 0.012356 0.192502 0.057750
v 0.019634 0.185590 0.086529
v 0.018395 0.185590 0.086192
v 0.019693 0.178043 0.092767
v 0.011047 0.049972 0.007677
v 0.010930 0.001456 0.006536
v 0.011129 0.082925 0.008494
v 0.011646 0.113416 0.013556
v 0.013094 0.156794 0.027803
v 0.014952 0.181802 0.046103
v 0.016227 0.190255 0.058667
v 0.019043 0.185590 0.086368
v 0.016623 0.049972 0.008089
v 0.005180 0.049972 0.004968
v 0.005877 0.001456 0.005158
v 0.015927 0.001456 0.007898
v 0.017057 0.082925 0.008207
v 0.004747 0.082925 0.004850
v 0.017782 0.116331 0.012755
v 0.004932 0.116331 0.009251
v 0.019280 0.160968 0.027495
v 0.006429 0.160968 0.023991
v 0.020513 0.185568 0.047150
v 0.009234 0.185568 0.044075
v 0.020072 0.192502 0.059854
v 0.012356 0.192502 0.057750
v 0.019634 0.185590 0.086529
v 0.018395 0.185590 0.086192
v 0.019693 0.178043 0.092767
v 0.011047 0.049972 0.007677
v 0.010930 0.001456 0.006536
v 0.011129 0.082925 0.008494
v 0.011646 0.113416 0.013556
v 0.013094 0.156794 0.027803
v 0.014952 0.181802 0.046103
v 0.016227 0.190255 0.058667
v 0.019043 0.185590 0.086368
vn 0.7365 0.0341 -0.6756
vn 0.3930 0.0627 -0.9174
vn 0.9190 0.2024 -0.3384
vn 0.9407 0.2302 -0.2491
vn 0.9215 0.2421 -0.3038
vn 0.8345 0.4384 -0.3338
vn 0.6336 0.7623 -0.1322
vn -0.1267 0.9801 0.1526
vn 0.5387 0.0318 -0.8419
vn 0.8571 0.0735 -0.5100
vn 0.2705 0.1639 -0.9487
vn 0.2124 0.1829 -0.9599
vn 0.2478 0.1949 -0.9490
vn 0.2707 0.3672 -0.8899
vn 0.1321 0.6738 -0.7270
vn -0.1272 0.9802 0.1520
vn -0.7365 -0.0341 0.6756
vn -0.3930 -0.0627 0.9174
vn -0.9190 -0.2024 0.3384
vn -0.9407 -0.2302 0.2491
vn -0.9215 -0.2421 0.3038
vn -0.8345 -0.4384 0.3339
vn -0.6336 -0.7623 0.1322
vn 0.1267 -0.9801 -0.1526
vn -0.5387 -0.0318 0.8419
vn -0.8571 -0.0735 0.5100
vn -0.2705 -0.1639 0.9487
vn -0.2124 -0.1829 0.9599
vn -0.2478 -0.1949 0.9490
vn -0.2707 -0.3672 0.8899
vn -0.1321 -0.6738 0.7270
vn 0.1272 -0.9802 -0.1520
vn 0.3033 0.4991 0.8117
vn -0.0471 0.0375 -0.9982
vn 0.5524 -0.0515 -0.8320
vn 0.6383 -0.1894 -0.7462
vn 0.6605 -0.4438 -0.6056
vn 0.6223 -0.6701 -0.4047
vn 0.4644 -0.8628 0.1995
vn -0.1128 -0.6952 0.7099
vn 0.3265 0.7236 0.6081
vn 0.4465 0.0665 -0.8923
vn -0.1555 -0.0930 -0.9835
vn -0.2536 -0.2412 -0.9367
vn -0.3033 -0.4991 -0.8117
vn -0.3265 -0.7236 -0.6081
vn -0.4146 -0.9100 0.0088
vn -0.1124 -0.6951 0.7100
vn 0.4146 0.9100 -0.0088
vn 0.0471 -0.0375 0.9982
vn -0.5524 0.0515 0.8320
vn -0.6383 0.1894 0.7462
vn -0.6605 0.4438 0.6056
vn -0.6223 0.6701 0.4047
vn -0.4644 0.8628 -0.1995
vn 0.1128 0.6952 -0.7099
vn 0.1124 0.6951 -0.7100
vn -0.4465 -0.0665 0.8923
vn 0.1555 0.0930 0.9835
vn 0.2536 0.2412 0.9367
vn -0.3505 -0.0113 0.9365
vn -0.0109 -0.0141 0.9998
vn -0.5343 -0.1181 0.8370
vn -0.5919 -0.2342 0.7712
vn -0.6010 -0.4530 0.6584
vn -0.5667 -0.6658 0.4854
vn -0.4187 -0.9002 -0.1196
vn 0.2065 -0.6224 -0.7550
vn -0.1654 -0.0122 0.9861
vn -0.4604 -0.0118 0.8877
vn 0.1246 -0.1499 0.9808
vn 0.2605 -0.3099 0.9144
vn 0.3480 -0.5832 0.7340
vn 0.3942 -0.7907 0.4685
vn 0.4908 -0.8476 -0.2019
vn 0.2054 -0.6226 -0.7551
vn 0.3505 0.0113 -0.9365
vn 0.0109 0.0141 -0.9998
vn 0.5343 0.1181 -0.8370
vn 0.5919 0.2342 -0.7712
vn 0.6010 0.4530 -0.6584
vn 0.5667 0.6658 -0.4854
vn 0.4187 0.9002 0.1196
vn -0.2065 0.6224 0.7550
vn 0.1654 0.0122 -0.9861
vn 0.4604 0.0118 -0.8877
vn -0.1246 0.1499 -0.9808
vn -0.2605 0.3099 -0.9144
vn -0.3480 0.5832 -0.7340
vn -0.3942 0.7907 -0.4685
vn -0.4908 0.8476 0.2019
vn -0.2054 0.6226 0.7551
vt 0.498022 0.002013
vt 0.968329 0.002013
vt 0.964279 0.137438
vt 0.498022 0.137438
vt 0.498022 0.225207
vt 0.031570 0.225207
vt 0.020838 0.137438
vt 0.957058 0.225207
vt 0.954987 0.345256
vt 0.498022 0.345256
vt 0.954987 0.556360
vt 0.498022 0.556360
vt 0.899340 0.682167
vt 0.498022 0.682167
vt 0.773170 0.824059
vt 0.498022 0.824059
vt 0.543866 0.970902
vt 0.498022 0.970902
vt 0.498022 0.997987
vt 0.456134 0.970902
vt 0.014420 0.002013
vt 0.045013 0.345256
vt 0.045013 0.556360
vt 0.100660 0.682167
vt 0.226830 0.824059
s 0
f 19/1/1 3/2/1 2/3/1 18/4/1
f 18/4/2 20/5/2 5/6/2 1/7/2
f 20/5/3 6/8/3 8/9/3 21/10/3
f 21/10/4 8/9/4 10/11/4 22/12/4
f 22/12/5 10/11/5 12/13/5 23/14/5
f 23/14/6 12/13/6 14/15/6 24/16/6
f 24/16/7 14/15/7 16/17/7 25/18/7
f 17/19/8 15/20/8 25/18/8
f 18/4/9 1/7/9 4/21/9 19/1/9
f 18/4/10 2/3/10 6/8/10 20/5/10
f 21/10/11 7/22/11 5/6/11 20/5/11
f 22/12/12 9/23/12 7/22/12 21/10/12
f 23/14/13 11/24/13 9/23/13 22/12/13
f 24/16/14 13/25/14 11/24/14 23/14/14
f 25/18/15 15/20/15 13/25/15 24/16/15
f 25/18/16 16/17/16 17/19/16
f 43/4/17 27/3/17 28/2/17 44/1/17
f 26/7/18 30/6/18 45/5/18 43/4/18
f 46/10/19 33/9/19 31/8/19 45/5/19
f 47/12/20 35/11/20 33/9/20 46/10/20
f 48/14/21 37/13/21 35/11/21 47/12/21
f 49/16/22 39/15/22 37/13/22 48/14/22
f 50/18/23 41/17/23 39/15/23 49/16/23
f 50/18/24 40/20/24 42/19/24
f 44/1/25 29/21/25 26/7/25 43/4/25
f 45/5/26 31/8/26 27/3/26 43/4/26
f 45/5/27 30/6/27 32/22/27 46/10/27
f 46/10/28 32/22/28 34/23/28 47/12/28
f 47/12/29 34/23/29 36/24/29 48/14/29
f 48/14/30 36/24/30 38/25/30 49/16/30
f 49/16/31 38/25/31 40/20/31 50/18/31
f 42/19/32 41/17/32 50/18/32
f 92/14/33 81/24/33 79/23/33 91/12/33
f 51/7/34 53/6/34 67/5/34 66/4/34
f 68/10/35 56/9/35 54/8/35 67/5/35
f 69/12/36 58/11/36 56/9/36 68/10/36
f 70/14/37 60/13/37 58/11/37 69/12/37
f 71/16/38 62/15/38 60/13/38 70/14/38
f 72/18/39 64/17/39 62/15/39 71/16/39
f 72/18/40 63/20/40 65/19/40
f 93/16/41 83/25/41 81/24/41 92/14/41
f 67/5/42 54/8/42 52/3/42 66/4/42
f 67/5/43 53/6/43 55/22/43 68/10/43
f 68/10/44 55/22/44 57/23/44 69/12/44
f 69/12/45 57/23/45 59/24/45 70/14/45
f 70/14/46 59/24/46 61/25/46 71/16/46
f 71/16/47 61/25/47 63/20/47 72/18/47
f 65/19/48 64/17/48 72/18/48
f 94/18/49 85/20/49 83/25/49 93/16/49
f 88/4/50 89/5/50 75/6/50 73/7/50
f 89/5/51 76/8/51 78/9/51 90/10/51
f 90/10/52 78/9/52 80/11/52 91/12/52
f 91/12/53 80/11/53 82/13/53 92/14/53
f 92/14/54 82/13/54 84/15/54 93/16/54
f 93/16/55 84/15/55 86/17/55 94/18/55
f 87/19/56 85/20/56 94/18/56
f 94/18/57 86/17/57 87/19/57
f 88/4/58 74/3/58 76/8/58 89/5/58
f 90/10/59 77/22/59 75/6/59 89/5/59
f 91/12/60 79/23/60 77/22/60 90/10/60
f 112/4/61 96/3/61 97/2/61 113/1/61
f 95/7/62 99/6/62 114/5/62 112/4/62
f 115/10/63 102/9/63 100/8/63 114/5/63
f 116/12/64 104/11/64 102/9/64 115/10/64
f 117/14/65 106/13/65 104/11/65 116/12/65
f 118/16/66 108/15/66 106/13/66 117/14/66
f 119/18/67 110/17/67 108/15/67 118/16/67
f 119/18/68 109/20/68 111/19/68
f 113/1/69 98/21/69 95/7/69 112/4/69
f 114/5/70 100/8/70 96/3/70 112/4/70
f 114/5/71 99/6/71 101/22/71 115/10/71
f 115/10/72 101/22/72 103/23/72 116/12/72
f 116/12/73 103/23/73 105/24/73 117/14/73
f 117/14/74 105/24/74 107/25/74 118/16/74
f 118/16/75 107/25/75 109/20/75 119/18/75
f 111/19/76 110/17/76 119/18/76
f 138/1/77 122/2/77 121/3/77 137/4/77
f 137/4/78 139/5/78 124/6/78 120/7/78
f 139/5/79 125/8/79 127/9/79 140/10/79
f 140/10/80 127/9/80 129/11/80 141/12/80
f 141/12/81 129/11/81 131/13/81 142/14/81
f 142/14/82 131/13/82 133/15/82 143/16/82
f 143/16/83 133/15/83 135/17/83 144/18/83
f 136/19/84 134/20/84 144/18/84
f 137/4/85 120/7/85 123/21/85 138/1/85
f 137/4/86 121/3/86 125/8/86 139/5/86
f 140/10/87 126/22/87 124/6/87 139/5/87
f 141/12/88 128/23/88 126/22/88 140/10/88
f 142/14/89 130/24/89 128/23/89 141/12/89
f 143/16/90 132/25/90 130/24/90 142/14/90
f 144/18/91 134/20/91 132/25/91 143/16/91
f 144/18/92 135/17/92 136/19/92
