# Blender 5.0.1
# www.blender.org
mtllib arrow.mtl
o Plane
v 0.000000 0.000000 0.000000
v -0.000373 0.998407 0.000000
v 0.094131 0.999148 0.001117
v -0.054229 1.497743 0.000000
v -0.197894 0.998864 0.000000
v -0.101710 0.998332 0.000000
v -0.100429 -0.000260 0.000000
v -0.004920 0.000000 -0.021418
v -0.005256 0.998407 -0.021255
v 0.080260 0.999148 -0.061495
v -0.053712 1.497743 0.002250
v -0.182973 0.998864 0.064950
v -0.096432 0.998332 0.022972
v -0.095280 -0.000260 0.022413
v -0.018695 0.000000 -0.038540
v -0.018926 0.998407 -0.038247
v 0.040455 0.999148 -0.111775
v -0.052265 1.497743 0.004048
v -0.141202 0.998864 0.116875
v -0.081659 0.998332 0.041337
v -0.080866 -0.000260 0.040331
v -0.038561 0.000000 -0.047935
v -0.038641 0.998407 -0.047570
v -0.017304 0.999148 -0.139641
v -0.050179 1.497743 0.005035
v -0.080957 0.998864 0.145364
v -0.060351 0.998332 0.051413
v -0.060077 -0.000260 0.050162
v -0.060535 0.000000 -0.047717
v -0.060448 0.998407 -0.047354
v -0.081433 0.999148 -0.139506
v -0.047871 1.497743 0.005012
v -0.014319 0.998864 0.144705
v -0.036782 0.998332 0.051180
v -0.037081 -0.000260 0.049935
v -0.080212 0.000000 -0.037931
v -0.079975 0.998407 -0.037643
v -0.139074 0.999148 -0.111396
v -0.045804 1.497743 0.003984
v 0.045350 0.998864 0.115028
v -0.015678 0.998332 0.040684
v -0.016491 -0.000260 0.039694
v -0.093644 0.000000 -0.020539
v -0.093305 0.998407 -0.020383
v -0.178667 0.999148 -0.060949
v -0.044393 1.497743 0.002157
v 0.086084 0.998864 0.062285
v -0.001271 0.998332 0.022030
v -0.002434 -0.000260 0.021494
v -0.098139 0.000000 0.000972
v -0.097766 0.998407 0.000965
v -0.192274 0.999148 0.001720
v -0.043921 1.497743 -0.000102
v 0.099716 0.998864 -0.002947
v 0.003551 0.998332 -0.001042
v 0.002270 -0.000260 -0.001017
v -0.092796 0.000000 0.022288
v -0.092463 0.998407 0.022119
v -0.177166 0.999148 0.064044
v -0.044482 1.497743 -0.002341
v 0.083512 0.998864 -0.067588
v -0.002181 0.998332 -0.023905
v -0.003322 -0.000260 -0.023323
v -0.078685 0.000000 0.039135
v -0.078460 0.998407 0.038837
v -0.136372 0.999148 0.113526
v -0.045964 1.497743 -0.004110
v 0.040721 0.998864 -0.118676
v -0.017315 0.998332 -0.041974
v -0.018088 -0.000260 -0.040952
v -0.058636 0.000000 0.048134
v -0.058564 0.998407 0.047768
v -0.078073 0.999148 0.140243
v -0.048070 1.497743 -0.005055
v -0.020077 0.998864 -0.145967
v -0.038818 0.998332 -0.051626
v -0.039068 -0.000260 -0.050370
v -0.036671 0.000000 0.047481
v -0.036765 0.998407 0.047120
v -0.013959 0.999148 0.138838
v -0.050377 1.497743 -0.004987
v -0.086688 0.998864 -0.143987
v -0.062378 0.998332 -0.050926
v -0.062054 -0.000260 -0.049687
v -0.017192 0.000000 0.037307
v -0.017435 0.998407 0.037024
v 0.043113 0.999148 0.109593
v -0.052423 1.497743 -0.003918
v -0.145758 0.998864 -0.113135
v -0.083270 0.998332 -0.040014
v -0.082438 -0.000260 -0.039040
v -0.155407 1.146399 0.000000
v -0.144746 1.146399 0.046407
v -0.114900 1.146399 0.083508
v -0.071855 1.146399 0.103864
v -0.024241 1.146399 0.103393
v 0.018392 1.146399 0.082189
v 0.047498 1.146399 0.044504
v 0.057238 1.146399 -0.002105
v 0.045660 1.146399 -0.048292
v 0.015085 1.146399 -0.084795
v -0.028355 1.146399 -0.104295
v -0.075950 1.146399 -0.102880
v -0.118156 1.146399 -0.080836
v -0.122680 1.260046 0.000000
v -0.115300 1.260046 0.032124
v -0.094640 1.260046 0.057806
v -0.064844 1.260046 0.071897
v -0.031885 1.260046 0.071570
v -0.002373 1.260046 0.056892
v 0.017774 1.260046 0.030806
v 0.024517 1.260046 -0.001457
v 0.016502 1.260046 -0.033429
v -0.004662 1.260046 -0.058697
v -0.034732 1.260046 -0.072194
v -0.067678 1.260046 -0.071215
v -0.096894 1.260046 -0.055956
v -0.178900 1.064821 0.000000
v -0.165883 1.064821 0.056660
v -0.129444 1.064821 0.101958
v -0.076888 1.064821 0.126811
v -0.018755 1.064821 0.126236
v 0.033298 1.064821 0.100347
v 0.068834 1.064821 0.054336
v 0.080726 1.064821 -0.002571
v 0.066590 1.064821 -0.058962
v 0.029260 1.064821 -0.103529
v -0.023778 1.064821 -0.127337
v -0.081888 1.064821 -0.125610
v -0.133418 1.064821 -0.098695
v -0.092474 1.364938 0.000000
v -0.088122 1.364938 0.018941
v -0.075941 1.364938 0.034084
v -0.058372 1.364938 0.042392
v -0.038939 1.364938 0.042199
v -0.021538 1.364938 0.033545
v -0.009659 1.364938 0.018164
v -0.005684 1.364938 -0.000859
v -0.010409 1.364938 -0.019710
v -0.022888 1.364938 -0.034608
v -0.040618 1.364938 -0.042567
v -0.060044 1.364938 -0.041990
v -0.077269 1.364938 -0.032992
v -0.139768 1.200708 0.000000
v -0.130675 1.200708 0.039582
v -0.105219 1.200708 0.071226
v -0.068504 1.200708 0.088588
v -0.027894 1.200708 0.088186
v 0.008469 1.200708 0.070100
v 0.033294 1.200708 0.037958
v 0.041601 1.200708 -0.001796
v 0.031726 1.200708 -0.041189
v 0.005648 1.200708 -0.072323
v -0.031403 1.200708 -0.088955
v -0.071997 1.200708 -0.087749
v -0.107995 1.200708 -0.068946
v 0.001356 1.310938 0.000419
v -0.003518 1.310938 -0.021633
v -0.017527 1.310938 -0.039346
v -0.037862 1.310938 -0.049170
v -0.060445 1.310938 -0.049133
v -0.080749 1.310938 -0.039245
v -0.094701 1.310938 -0.021486
v -0.099503 1.310938 0.000581
v -0.094194 1.310938 0.022531
v -0.079837 1.310938 0.039964
v -0.059311 1.310938 0.049383
v -0.036733 1.310938 0.048899
v -0.016629 1.310938 0.038610
v -0.101069 0.499036 0.000000
v -0.095856 0.499036 0.022692
v -0.081262 0.499036 0.040834
v -0.060214 0.499036 0.050788
v -0.036932 0.499036 0.050557
v -0.016084 0.499036 0.040189
v -0.001853 0.499036 0.021762
v 0.002910 0.499036 -0.001029
v -0.002751 0.499036 -0.023614
v -0.017702 0.499036 -0.041463
v -0.038943 0.499036 -0.050998
v -0.062216 0.499036 -0.050306
v -0.082854 0.499036 -0.039527
v -0.101438 0.786322 0.000000
v -0.096188 0.786322 0.022853
v -0.081490 0.786322 0.041124
v -0.060293 0.786322 0.051148
v -0.036846 0.786322 0.050916
v -0.015851 0.786322 0.040474
v -0.001518 0.786322 0.021916
v 0.003279 0.786322 -0.001037
v -0.002423 0.786322 -0.023781
v -0.017479 0.786322 -0.041757
v -0.038871 0.786322 -0.051359
v -0.062309 0.786322 -0.050663
v -0.083093 0.786322 -0.039807
v -0.100745 0.246416 0.000000
v -0.095565 0.246416 0.022551
v -0.081062 0.246416 0.040580
v -0.060144 0.246416 0.050471
v -0.037007 0.246416 0.050242
v -0.016290 0.246416 0.039938
v -0.002147 0.246416 0.021626
v 0.002586 0.246416 -0.001023
v -0.003040 0.246416 -0.023467
v -0.017897 0.246416 -0.041205
v -0.039006 0.246416 -0.050680
v -0.062134 0.246416 -0.049993
v -0.082643 0.246416 -0.039281
v -0.168117 1.102263 0.000000
v -0.156182 1.102263 0.051954
v -0.122769 1.102263 0.093490
v -0.074578 1.102263 0.116279
v -0.021273 1.102263 0.115751
v 0.026457 1.102263 0.092013
v 0.059041 1.102263 0.049823
v 0.069945 1.102263 -0.002357
v 0.056983 1.102263 -0.054065
v 0.022754 1.102263 -0.094931
v -0.025879 1.102263 -0.116761
v -0.079162 1.102263 -0.115178
v -0.126413 1.102263 -0.090498
v -0.110115 1.303678 0.000000
v -0.103995 1.303678 0.026640
v -0.086862 1.303678 0.047938
v -0.062152 1.303678 0.059624
v -0.034819 1.303678 0.059353
v -0.010345 1.303678 0.047181
v 0.006363 1.303678 0.025547
v 0.011954 1.303678 -0.001209
v 0.005308 1.303678 -0.027722
v -0.012244 1.303678 -0.048677
v -0.037181 1.303678 -0.059870
v -0.064502 1.303678 -0.059059
v -0.088731 1.303678 -0.046404
v -0.076351 1.420925 0.000000
v -0.073616 1.420925 0.011904
v -0.065960 1.420925 0.021422
v -0.054918 1.420925 0.026643
v -0.042704 1.420925 0.026522
v -0.031768 1.420925 0.021083
v -0.024302 1.420925 0.011416
v -0.021803 1.420925 -0.000540
v -0.024773 1.420925 -0.012388
v -0.032616 1.420925 -0.021751
v -0.043760 1.420925 -0.026753
v -0.055969 1.420925 -0.026390
v -0.066795 1.420925 -0.020736
v -0.101294 1.334308 0.000000
v -0.096059 1.334308 0.022791
v -0.081401 1.334308 0.041011
v -0.060262 1.334308 0.051008
v -0.036879 1.334308 0.050776
v -0.015942 1.334308 0.040363
v -0.001648 1.334308 0.021856
v 0.003135 1.334308 -0.001034
v -0.002551 1.334308 -0.023716
v -0.017566 1.334308 -0.041643
v -0.038899 1.334308 -0.051219
v -0.062273 1.334308 -0.050524
v -0.083000 1.334308 -0.039698
v -0.096884 1.349623 0.000000
v -0.092090 1.349623 0.020866
v -0.078671 1.349623 0.037547
v -0.059317 1.349623 0.046700
v -0.037909 1.349623 0.046488
v -0.018740 1.349623 0.036954
v -0.005654 1.349623 0.020010
v -0.001274 1.349623 -0.000947
v -0.006480 1.349623 -0.021713
v -0.020227 1.349623 -0.038126
v -0.039759 1.349623 -0.046893
v -0.061158 1.349623 -0.046257
v -0.080135 1.349623 -0.036345
v -0.131224 1.230377 0.000000
v -0.122987 1.230377 0.035853
v -0.099930 1.230377 0.064516
v -0.066674 1.230377 0.080242
v -0.029889 1.230377 0.079878
v 0.003048 1.230377 0.063496
v 0.025534 1.230377 0.034382
v 0.033059 1.230377 -0.001627
v 0.024114 1.230377 -0.037309
v 0.000493 1.230377 -0.065510
v -0.033067 1.230377 -0.080575
v -0.069838 1.230377 -0.079482
v -0.102444 1.230377 -0.062451
v -0.188936 1.029971 0.000000
v -0.174913 1.029971 0.061040
v -0.135657 1.029971 0.109840
v -0.079038 1.029971 0.136614
v -0.016411 1.029971 0.135994
v 0.039666 1.029971 0.108104
v 0.077948 1.029971 0.058536
v 0.090760 1.029971 -0.002769
v 0.075531 1.029971 -0.063520
v 0.035316 1.029971 -0.111533
v -0.021822 1.029971 -0.137181
v -0.084424 1.029971 -0.135320
v -0.139938 1.029971 -0.106325
vn -0.9746 -0.0013 0.2239
vn -0.9384 0.2702 0.2156
vn -0.0078 1.0000 0.0018
vn -0.0026 1.0000 0.0006
vn -0.0055 -1.0000 0.0013
vn -0.9380 -0.2785 0.2064
vn -0.9746 -0.0004 0.2239
vn -0.7792 -0.0004 0.6268
vn -0.7792 -0.0013 0.6268
vn -0.7502 0.2702 0.6035
vn -0.0063 1.0000 0.0050
vn -0.0021 1.0000 0.0017
vn -0.0044 -1.0000 0.0036
vn -0.7539 -0.2785 0.5951
vn -0.0011 1.0000 0.0024
vn -0.0024 -1.0000 0.0051
vn -0.4186 -0.2785 0.8644
vn -0.4275 -0.0004 0.9040
vn -0.4275 -0.0013 0.9040
vn -0.4116 0.2702 0.8704
vn -0.0035 1.0000 0.0073
vn 0.0099 -0.0013 1.0000
vn 0.0095 0.2702 0.9628
vn -0.0000 1.0000 0.0080
vn -0.0000 1.0000 0.0027
vn 0.0001 -1.0000 0.0057
vn 0.0006 -0.2785 0.9604
vn 0.0099 -0.0004 1.0000
vn 0.4197 -0.2785 0.8639
vn 0.4453 -0.0004 0.8954
vn 0.4453 -0.0013 0.8954
vn 0.4288 0.2702 0.8621
vn 0.0035 1.0000 0.0072
vn 0.0012 1.0000 0.0024
vn 0.0025 -1.0000 0.0051
vn 0.0021 1.0000 0.0016
vn 0.0045 -1.0000 0.0035
vn 0.7547 -0.2785 0.5941
vn 0.7914 -0.0004 0.6112
vn 0.7914 -0.0013 0.6113
vn 0.7620 0.2702 0.5885
vn 0.0063 1.0000 0.0050
vn 0.9789 -0.0013 0.2046
vn 0.9424 0.2702 0.1969
vn 0.0079 1.0000 0.0017
vn 0.0026 1.0000 0.0005
vn 0.0056 -1.0000 0.0012
vn 0.9383 -0.2785 0.2051
vn 0.9789 -0.0004 0.2046
vn 0.0055 -1.0000 -0.0014
vn 0.9337 -0.2785 -0.2249
vn 0.9700 -0.0004 -0.2432
vn 0.9700 -0.0013 -0.2432
vn 0.9339 0.2702 -0.2341
vn 0.0078 1.0000 -0.0019
vn 0.0026 1.0000 -0.0006
vn 0.0062 1.0000 -0.0051
vn 0.0020 1.0000 -0.0017
vn 0.0043 -1.0000 -0.0036
vn 0.7419 -0.2785 -0.6099
vn 0.7666 -0.0004 -0.6421
vn 0.7666 -0.0013 -0.6421
vn 0.7381 0.2702 -0.6182
vn 0.4095 -0.0013 -0.9123
vn 0.3943 0.2702 -0.8784
vn 0.0033 1.0000 -0.0073
vn 0.0011 1.0000 -0.0024
vn 0.0023 -1.0000 -0.0052
vn 0.4014 -0.2785 -0.8725
vn 0.4095 -0.0004 -0.9123
vn -0.0001 1.0000 -0.0027
vn -0.0002 -1.0000 -0.0057
vn -0.0197 -0.2785 -0.9602
vn -0.0297 -0.0004 -0.9996
vn -0.0297 -0.0013 -0.9996
vn -0.0286 0.2702 -0.9624
vn -0.0002 1.0000 -0.0080
vn -0.4457 0.2702 -0.8534
vn -0.0037 1.0000 -0.0072
vn -0.0012 1.0000 -0.0024
vn -0.0026 -1.0000 -0.0050
vn -0.4368 -0.2785 -0.8554
vn -0.4630 -0.0004 -0.8864
vn -0.4630 -0.0013 -0.8864
vn -0.4379 -0.2785 -0.8548
vn -0.0209 -0.2785 -0.9602
vn 0.4002 -0.2785 -0.8731
vn 0.7411 -0.2785 -0.6108
vn 0.9334 -0.2785 -0.2261
vn 0.9385 -0.2785 0.2039
vn 0.7554 -0.2785 0.5931
vn 0.4209 -0.2785 0.8633
vn 0.0019 -0.2785 0.9604
vn -0.4175 -0.2785 0.8650
vn -0.7531 -0.2785 0.5960
vn -0.9377 -0.2785 0.2076
vn 0.7914 -0.0013 0.6112
vn 0.4287 0.2702 0.8621
vt 0.000000 0.000000
s 0
f 196/1/1 7/1/1 14/1/1 197/1/1
f 287/1/2 5/1/2 12/1/2 288/1/2
f 2/1/3 3/1/3 10/1/3 9/1/3
f 1/1/4 7/1/4 14/1/4 8/1/4
f 5/1/5 6/1/5 13/1/5 12/1/5
f 157/1/6 4/1/6 11/1/6 158/1/6
f 1/1/7 2/1/7 9/1/7 8/1/7
f 8/1/8 9/1/8 16/1/8 15/1/8
f 197/1/9 14/1/9 21/1/9 198/1/9
f 288/1/10 12/1/10 19/1/10 289/1/10
f 9/1/11 10/1/11 17/1/11 16/1/11
f 8/1/12 14/1/12 21/1/12 15/1/12
f 12/1/13 13/1/13 20/1/13 19/1/13
f 158/1/14 11/1/14 18/1/14 159/1/14
f 15/1/15 21/1/15 28/1/15 22/1/15
f 19/1/16 20/1/16 27/1/16 26/1/16
f 159/1/17 18/1/17 25/1/17 160/1/17
f 15/1/18 16/1/18 23/1/18 22/1/18
f 198/1/19 21/1/19 28/1/19 199/1/19
f 289/1/20 19/1/20 26/1/20 290/1/20
f 16/1/21 17/1/21 24/1/21 23/1/21
f 199/1/22 28/1/22 35/1/22 200/1/22
f 290/1/23 26/1/23 33/1/23 291/1/23
f 23/1/24 24/1/24 31/1/24 30/1/24
f 22/1/25 28/1/25 35/1/25 29/1/25
f 26/1/26 27/1/26 34/1/26 33/1/26
f 160/1/27 25/1/27 32/1/27 161/1/27
f 22/1/28 23/1/28 30/1/28 29/1/28
f 161/1/29 32/1/29 39/1/29 162/1/29
f 29/1/30 30/1/30 37/1/30 36/1/30
f 200/1/31 35/1/31 42/1/31 201/1/31
f 291/1/32 33/1/32 40/1/32 292/1/32
f 30/1/33 31/1/33 38/1/33 37/1/33
f 29/1/34 35/1/34 42/1/34 36/1/34
f 33/1/35 34/1/35 41/1/35 40/1/35
f 36/1/36 42/1/36 49/1/36 43/1/36
f 40/1/37 41/1/37 48/1/37 47/1/37
f 162/1/38 39/1/38 46/1/38 163/1/38
f 36/1/39 37/1/39 44/1/39 43/1/39
f 201/1/40 42/1/40 49/1/40 202/1/40
f 292/1/41 40/1/41 47/1/41 293/1/41
f 37/1/42 38/1/42 45/1/42 44/1/42
f 202/1/43 49/1/43 56/1/43 203/1/43
f 293/1/44 47/1/44 54/1/44 294/1/44
f 44/1/45 45/1/45 52/1/45 51/1/45
f 43/1/46 49/1/46 56/1/46 50/1/46
f 47/1/47 48/1/47 55/1/47 54/1/47
f 163/1/48 46/1/48 53/1/48 164/1/48
f 43/1/49 44/1/49 51/1/49 50/1/49
f 54/1/50 55/1/50 62/1/50 61/1/50
f 164/1/51 53/1/51 60/1/51 165/1/51
f 50/1/52 51/1/52 58/1/52 57/1/52
f 203/1/53 56/1/53 63/1/53 204/1/53
f 294/1/54 54/1/54 61/1/54 295/1/54
f 51/1/55 52/1/55 59/1/55 58/1/55
f 50/1/56 56/1/56 63/1/56 57/1/56
f 58/1/57 59/1/57 66/1/57 65/1/57
f 57/1/58 63/1/58 70/1/58 64/1/58
f 61/1/59 62/1/59 69/1/59 68/1/59
f 165/1/60 60/1/60 67/1/60 166/1/60
f 57/1/61 58/1/61 65/1/61 64/1/61
f 204/1/62 63/1/62 70/1/62 205/1/62
f 295/1/63 61/1/63 68/1/63 296/1/63
f 205/1/64 70/1/64 77/1/64 206/1/64
f 296/1/65 68/1/65 75/1/65 297/1/65
f 65/1/66 66/1/66 73/1/66 72/1/66
f 64/1/67 70/1/67 77/1/67 71/1/67
f 68/1/68 69/1/68 76/1/68 75/1/68
f 166/1/69 67/1/69 74/1/69 167/1/69
f 64/1/70 65/1/70 72/1/70 71/1/70
f 71/1/71 77/1/71 84/1/71 78/1/71
f 75/1/72 76/1/72 83/1/72 82/1/72
f 167/1/73 74/1/73 81/1/73 168/1/73
f 71/1/74 72/1/74 79/1/74 78/1/74
f 206/1/75 77/1/75 84/1/75 207/1/75
f 297/1/76 75/1/76 82/1/76 298/1/76
f 72/1/77 73/1/77 80/1/77 79/1/77
f 298/1/78 82/1/78 89/1/78 299/1/78
f 79/1/79 80/1/79 87/1/79 86/1/79
f 78/1/80 84/1/80 91/1/80 85/1/80
f 82/1/81 83/1/81 90/1/81 89/1/81
f 168/1/82 81/1/82 88/1/82 169/1/82
f 78/1/83 79/1/83 86/1/83 85/1/83
f 207/1/84 84/1/84 91/1/84 208/1/84
f 155/1/78 103/1/78 104/1/78 156/1/78
f 154/1/76 102/1/76 103/1/76 155/1/76
f 153/1/65 101/1/65 102/1/65 154/1/65
f 152/1/63 100/1/63 101/1/63 153/1/63
f 151/1/54 99/1/54 100/1/54 152/1/54
f 150/1/44 98/1/44 99/1/44 151/1/44
f 149/1/41 97/1/41 98/1/41 150/1/41
f 148/1/32 96/1/32 97/1/32 149/1/32
f 147/1/23 95/1/23 96/1/23 148/1/23
f 146/1/20 94/1/20 95/1/20 147/1/20
f 145/1/10 93/1/10 94/1/10 146/1/10
f 144/1/2 92/1/2 93/1/2 145/1/2
f 222/1/2 105/1/2 106/1/2 223/1/2
f 223/1/10 106/1/10 107/1/10 224/1/10
f 224/1/20 107/1/20 108/1/20 225/1/20
f 225/1/23 108/1/23 109/1/23 226/1/23
f 226/1/32 109/1/32 110/1/32 227/1/32
f 227/1/41 110/1/41 111/1/41 228/1/41
f 228/1/44 111/1/44 112/1/44 229/1/44
f 229/1/54 112/1/54 113/1/54 230/1/54
f 230/1/63 113/1/63 114/1/63 231/1/63
f 231/1/65 114/1/65 115/1/65 232/1/65
f 232/1/76 115/1/76 116/1/76 233/1/76
f 233/1/78 116/1/78 117/1/78 234/1/78
f 220/1/78 129/1/78 130/1/78 221/1/78
f 219/1/76 128/1/76 129/1/76 220/1/76
f 218/1/65 127/1/65 128/1/65 219/1/65
f 217/1/63 126/1/63 127/1/63 218/1/63
f 216/1/54 125/1/54 126/1/54 217/1/54
f 215/1/44 124/1/44 125/1/44 216/1/44
f 214/1/41 123/1/41 124/1/41 215/1/41
f 213/1/32 122/1/32 123/1/32 214/1/32
f 212/1/23 121/1/23 122/1/23 213/1/23
f 211/1/20 120/1/20 121/1/20 212/1/20
f 210/1/10 119/1/10 120/1/10 211/1/10
f 209/1/2 118/1/2 119/1/2 210/1/2
f 246/1/78 142/1/78 143/1/78 247/1/78
f 245/1/76 141/1/76 142/1/76 246/1/76
f 244/1/65 140/1/65 141/1/65 245/1/65
f 243/1/63 139/1/63 140/1/63 244/1/63
f 242/1/54 138/1/54 139/1/54 243/1/54
f 241/1/44 137/1/44 138/1/44 242/1/44
f 240/1/41 136/1/41 137/1/41 241/1/41
f 239/1/32 135/1/32 136/1/32 240/1/32
f 238/1/23 134/1/23 135/1/23 239/1/23
f 237/1/20 133/1/20 134/1/20 238/1/20
f 236/1/10 132/1/10 133/1/10 237/1/10
f 235/1/2 131/1/2 132/1/2 236/1/2
f 274/1/2 144/1/2 145/1/2 275/1/2
f 275/1/10 145/1/10 146/1/10 276/1/10
f 276/1/20 146/1/20 147/1/20 277/1/20
f 277/1/23 147/1/23 148/1/23 278/1/23
f 278/1/32 148/1/32 149/1/32 279/1/32
f 279/1/41 149/1/41 150/1/41 280/1/41
f 280/1/44 150/1/44 151/1/44 281/1/44
f 281/1/54 151/1/54 152/1/54 282/1/54
f 282/1/63 152/1/63 153/1/63 283/1/63
f 283/1/65 153/1/65 154/1/65 284/1/65
f 284/1/76 154/1/76 155/1/76 285/1/76
f 285/1/78 155/1/78 156/1/78 286/1/78
f 80/1/85 168/1/85 169/1/85 87/1/85
f 73/1/86 167/1/86 168/1/86 80/1/86
f 66/1/87 166/1/87 167/1/87 73/1/87
f 59/1/88 165/1/88 166/1/88 66/1/88
f 52/1/89 164/1/89 165/1/89 59/1/89
f 45/1/90 163/1/90 164/1/90 52/1/90
f 38/1/91 162/1/91 163/1/91 45/1/91
f 31/1/92 161/1/92 162/1/92 38/1/92
f 24/1/93 160/1/93 161/1/93 31/1/93
f 17/1/94 159/1/94 160/1/94 24/1/94
f 10/1/95 158/1/95 159/1/95 17/1/95
f 3/1/96 157/1/96 158/1/96 10/1/96
f 194/1/84 181/1/84 182/1/84 195/1/84
f 193/1/75 180/1/75 181/1/75 194/1/75
f 192/1/64 179/1/64 180/1/64 193/1/64
f 191/1/62 178/1/62 179/1/62 192/1/62
f 190/1/53 177/1/53 178/1/53 191/1/53
f 189/1/43 176/1/43 177/1/43 190/1/43
f 188/1/97 175/1/97 176/1/97 189/1/97
f 187/1/31 174/1/31 175/1/31 188/1/31
f 186/1/22 173/1/22 174/1/22 187/1/22
f 185/1/19 172/1/19 173/1/19 186/1/19
f 184/1/9 171/1/9 172/1/9 185/1/9
f 183/1/1 170/1/1 171/1/1 184/1/1
f 6/1/1 183/1/1 184/1/1 13/1/1
f 13/1/9 184/1/9 185/1/9 20/1/9
f 20/1/19 185/1/19 186/1/19 27/1/19
f 27/1/22 186/1/22 187/1/22 34/1/22
f 34/1/31 187/1/31 188/1/31 41/1/31
f 41/1/97 188/1/97 189/1/97 48/1/97
f 48/1/43 189/1/43 190/1/43 55/1/43
f 55/1/53 190/1/53 191/1/53 62/1/53
f 62/1/62 191/1/62 192/1/62 69/1/62
f 69/1/64 192/1/64 193/1/64 76/1/64
f 76/1/75 193/1/75 194/1/75 83/1/75
f 83/1/84 194/1/84 195/1/84 90/1/84
f 181/1/84 207/1/84 208/1/84 182/1/84
f 180/1/75 206/1/75 207/1/75 181/1/75
f 179/1/64 205/1/64 206/1/64 180/1/64
f 178/1/62 204/1/62 205/1/62 179/1/62
f 177/1/53 203/1/53 204/1/53 178/1/53
f 176/1/43 202/1/43 203/1/43 177/1/43
f 175/1/40 201/1/40 202/1/40 176/1/40
f 174/1/31 200/1/31 201/1/31 175/1/31
f 173/1/22 199/1/22 200/1/22 174/1/22
f 172/1/19 198/1/19 199/1/19 173/1/19
f 171/1/9 197/1/9 198/1/9 172/1/9
f 170/1/1 196/1/1 197/1/1 171/1/1
f 92/1/2 209/1/2 210/1/2 93/1/2
f 93/1/10 210/1/10 211/1/10 94/1/10
f 94/1/20 211/1/20 212/1/20 95/1/20
f 95/1/23 212/1/23 213/1/23 96/1/23
f 96/1/32 213/1/32 214/1/32 97/1/32
f 97/1/41 214/1/41 215/1/41 98/1/41
f 98/1/44 215/1/44 216/1/44 99/1/44
f 99/1/54 216/1/54 217/1/54 100/1/54
f 100/1/63 217/1/63 218/1/63 101/1/63
f 101/1/65 218/1/65 219/1/65 102/1/65
f 102/1/76 219/1/76 220/1/76 103/1/76
f 103/1/78 220/1/78 221/1/78 104/1/78
f 259/1/78 233/1/78 234/1/78 260/1/78
f 258/1/76 232/1/76 233/1/76 259/1/76
f 257/1/65 231/1/65 232/1/65 258/1/65
f 256/1/63 230/1/63 231/1/63 257/1/63
f 255/1/54 229/1/54 230/1/54 256/1/54
f 254/1/44 228/1/44 229/1/44 255/1/44
f 253/1/41 227/1/41 228/1/41 254/1/41
f 252/1/32 226/1/32 227/1/32 253/1/32
f 251/1/23 225/1/23 226/1/23 252/1/23
f 250/1/20 224/1/20 225/1/20 251/1/20
f 249/1/10 223/1/10 224/1/10 250/1/10
f 248/1/2 222/1/2 223/1/2 249/1/2
f 4/1/2 235/1/2 236/1/2 11/1/2
f 11/1/10 236/1/10 237/1/10 18/1/10
f 18/1/20 237/1/20 238/1/20 25/1/20
f 25/1/23 238/1/23 239/1/23 32/1/23
f 32/1/32 239/1/32 240/1/32 39/1/32
f 39/1/41 240/1/41 241/1/41 46/1/41
f 46/1/44 241/1/44 242/1/44 53/1/44
f 53/1/54 242/1/54 243/1/54 60/1/54
f 60/1/63 243/1/63 244/1/63 67/1/63
f 67/1/65 244/1/65 245/1/65 74/1/65
f 74/1/76 245/1/76 246/1/76 81/1/76
f 81/1/78 246/1/78 247/1/78 88/1/78
f 261/1/2 248/1/2 249/1/2 262/1/2
f 262/1/10 249/1/10 250/1/10 263/1/10
f 263/1/20 250/1/20 251/1/20 264/1/20
f 264/1/23 251/1/23 252/1/23 265/1/23
f 265/1/98 252/1/98 253/1/98 266/1/98
f 266/1/41 253/1/41 254/1/41 267/1/41
f 267/1/44 254/1/44 255/1/44 268/1/44
f 268/1/54 255/1/54 256/1/54 269/1/54
f 269/1/63 256/1/63 257/1/63 270/1/63
f 270/1/65 257/1/65 258/1/65 271/1/65
f 271/1/76 258/1/76 259/1/76 272/1/76
f 272/1/78 259/1/78 260/1/78 273/1/78
f 142/1/78 272/1/78 273/1/78 143/1/78
f 141/1/76 271/1/76 272/1/76 142/1/76
f 140/1/65 270/1/65 271/1/65 141/1/65
f 139/1/63 269/1/63 270/1/63 140/1/63
f 138/1/54 268/1/54 269/1/54 139/1/54
f 137/1/44 267/1/44 268/1/44 138/1/44
f 136/1/41 266/1/41 267/1/41 137/1/41
f 135/1/32 265/1/32 266/1/32 136/1/32
f 134/1/23 264/1/23 265/1/23 135/1/23
f 133/1/20 263/1/20 264/1/20 134/1/20
f 132/1/10 262/1/10 263/1/10 133/1/10
f 131/1/2 261/1/2 262/1/2 132/1/2
f 116/1/78 285/1/78 286/1/78 117/1/78
f 115/1/76 284/1/76 285/1/76 116/1/76
f 114/1/65 283/1/65 284/1/65 115/1/65
f 113/1/63 282/1/63 283/1/63 114/1/63
f 112/1/54 281/1/54 282/1/54 113/1/54
f 111/1/44 280/1/44 281/1/44 112/1/44
f 110/1/41 279/1/41 280/1/41 111/1/41
f 109/1/32 278/1/32 279/1/32 110/1/32
f 108/1/23 277/1/23 278/1/23 109/1/23
f 107/1/20 276/1/20 277/1/20 108/1/20
f 106/1/10 275/1/10 276/1/10 107/1/10
f 105/1/2 274/1/2 275/1/2 106/1/2
f 129/1/78 298/1/78 299/1/78 130/1/78
f 128/1/76 297/1/76 298/1/76 129/1/76
f 127/1/65 296/1/65 297/1/65 128/1/65
f 126/1/63 295/1/63 296/1/63 127/1/63
f 125/1/54 294/1/54 295/1/54 126/1/54
f 124/1/44 293/1/44 294/1/44 125/1/44
f 123/1/41 292/1/41 293/1/41 124/1/41
f 122/1/32 291/1/32 292/1/32 123/1/32
f 121/1/23 290/1/23 291/1/23 122/1/23
f 120/1/20 289/1/20 290/1/20 121/1/20
f 119/1/10 288/1/10 289/1/10 120/1/10
f 118/1/2 287/1/2 288/1/2 119/1/2
